<svg width="40" height="40" viewBox="0 0 40 40" fill="none" xmlns="http://www.w3.org/2000/svg">
<path d="M33.3333 13.3333H6.66667C5.74619 13.3333 5 14.0795 5 15V18.3333C5 19.2538 5.74619 20 6.66667 20H33.3333C34.2538 20 35 19.2538 35 18.3333V15C35 14.0795 34.2538 13.3333 33.3333 13.3333Z" stroke="#B8904D" stroke-width="3.33333" stroke-linecap="round" stroke-linejoin="round"/>
<path d="M20 13.3333V35" stroke="#B8904D" stroke-width="3.33333" stroke-linecap="round" stroke-linejoin="round"/>
<path d="M31.6667 20V31.6667C31.6667 32.5507 31.3155 33.3986 30.6904 34.0237C30.0653 34.6488 29.2174 35 28.3334 35H11.6667C10.7827 35 9.93481 34.6488 9.30968 34.0237C8.68456 33.3986 8.33337 32.5507 8.33337 31.6667V20" stroke="#B8904D" stroke-width="3.33333" stroke-linecap="round" stroke-linejoin="round"/>
<path d="M12.5 13.3333C11.395 13.3333 10.3352 12.8943 9.55376 12.1129C8.77236 11.3315 8.33337 10.2717 8.33337 9.16666C8.33337 8.06159 8.77236 7.00179 9.55376 6.22038C10.3352 5.43898 11.395 5 12.5 5C14.1079 4.97198 15.6834 5.7521 17.0213 7.2386C18.3591 8.7251 19.3972 10.849 20 13.3333C20.6029 10.849 21.641 8.7251 22.9788 7.2386C24.3167 5.7521 25.8922 4.97198 27.5 5C28.6051 5 29.6649 5.43898 30.4463 6.22038C31.2277 7.00179 31.6667 8.06159 31.6667 9.16666C31.6667 10.2717 31.2277 11.3315 30.4463 12.1129C29.6649 12.8943 28.6051 13.3333 27.5 13.3333" stroke="#B8904D" stroke-width="3.33333" stroke-linecap="round" stroke-linejoin="round"/>
</svg>
